<?xml version="1.0" standalone="no"?><!DOCTYPE svg PUBLIC "-//W3C//DTD SVG 1.1//EN" "http://www.w3.org/Graphics/SVG/1.1/DTD/svg11.dtd"><svg t="1610954507277" class="icon" viewBox="0 0 1024 1024" version="1.1" xmlns="http://www.w3.org/2000/svg" p-id="2545" xmlns:xlink="http://www.w3.org/1999/xlink" width="200" height="200"><defs><style type="text/css"></style></defs><path d="M384 981.333333a42.666667 42.666667 0 0 1-22.613333-6.4A42.666667 42.666667 0 0 1 341.333333 938.666667v-410.453334L10.666667 156.16A42.666667 42.666667 0 0 1 42.666667 85.333333h938.666666a42.666667 42.666667 0 0 1 32 70.826667L682.666667 528.213333V810.666667a42.666667 42.666667 0 0 1-23.466667 37.973333l-256 128A42.666667 42.666667 0 0 1 384 981.333333zM137.813333 170.666667l278.186667 313.173333A42.666667 42.666667 0 0 1 426.666667 512v357.546667l170.666666-85.333334V512a42.666667 42.666667 0 0 1 10.666667-28.16L886.186667 170.666667z" p-id="2546"></path></svg>