<?xml version="1.0" standalone="no"?><!DOCTYPE svg PUBLIC "-//W3C//DTD SVG 1.1//EN" "http://www.w3.org/Graphics/SVG/1.1/DTD/svg11.dtd"><svg t="1612507662546" class="icon" viewBox="0 0 1024 1024" version="1.1" xmlns="http://www.w3.org/2000/svg" p-id="2594" xmlns:xlink="http://www.w3.org/1999/xlink" width="200" height="200"><defs><style type="text/css"></style></defs><path d="M1011.982178 953.711842l-235.075658-235.026897A437.042755 437.042755 0 0 0 877.695025 438.846903a438.846903 438.846903 0 0 0-438.846903-438.846903 438.846903 438.846903 0 0 0-438.846903 438.846903 438.846903 438.846903 0 0 0 438.846903 438.846903 437.042755 437.042755 0 0 0 279.886803-100.788505l235.026897 235.026897a41.202848 41.202848 0 0 0 58.269116 0 41.446652 41.446652 0 0 0-0.04876-58.220356z m-434.409674-186.26613c-43.88469 18.577852-90.499984 27.939919-138.724382 27.939919a355.758556 355.758556 0 0 1-252.093165-104.445562A355.758556 355.758556 0 0 1 82.260633 438.846903 355.758556 355.758556 0 0 1 186.754957 186.753738 355.758556 355.758556 0 0 1 438.848122 82.259414a355.758556 355.758556 0 0 1 252.093166 104.445563A355.758556 355.758556 0 0 1 795.435611 438.846903a355.758556 355.758556 0 0 1-104.445563 252.093166 354.490776 354.490776 0 0 1-113.417544 76.456882z" p-id="2595"></path></svg>