<?xml version="1.0" standalone="no"?><!DOCTYPE svg PUBLIC "-//W3C//DTD SVG 1.1//EN" "http://www.w3.org/Graphics/SVG/1.1/DTD/svg11.dtd"><svg t="1611653059361" class="icon" viewBox="0 0 1024 1024" version="1.1" xmlns="http://www.w3.org/2000/svg" p-id="3757" xmlns:xlink="http://www.w3.org/1999/xlink" width="200" height="200"><defs><style type="text/css"></style></defs><path d="M134.826667 680.96l71.68 71.68 23.893333 25.6 23.893333-25.6 266.24-264.533333 266.24 264.533333 23.893334 25.6 23.893333-25.6 71.68-71.68 23.893333-23.893333-23.893333-23.893334-288.426667-290.133333-73.386666-71.68-23.893334-25.6-23.893333 25.6-73.386667 71.68-288.426666 290.133333-23.893334 23.893334z" fill="#28015B" p-id="3758"></path><path d="M486.4 430.08l-290.133333 288.426667-95.573334-95.573334 385.706667-385.706666 385.706667 385.706666-95.573334 95.573334z" fill="#FFFFFF" p-id="3759"></path><path d="M486.4 261.12l71.68 71.68 290.133333 290.133333-71.68 71.68-290.133333-290.133333-290.133333 290.133333-71.68-71.68 290.133333-290.133333 71.68-71.68m0-49.493333l-23.893333 23.893333-71.68 71.68-290.133334 290.133333-23.893333 23.893334 23.893333 23.893333 71.68 71.68 23.893334 23.893333 23.893333-23.893333 266.24-266.24L752.64 716.8l23.893333 23.893333 23.893334-23.893333 71.68-71.68 23.893333-23.893333-23.893333-23.893334-290.133334-290.133333-71.68-71.68-23.893333-23.893333z" fill="#28015B" p-id="3760"></path></svg>