<?xml version="1.0" standalone="no"?><!DOCTYPE svg PUBLIC "-//W3C//DTD SVG 1.1//EN" "http://www.w3.org/Graphics/SVG/1.1/DTD/svg11.dtd"><svg t="1610942398472" class="icon" viewBox="0 0 1024 1024" version="1.1" xmlns="http://www.w3.org/2000/svg" p-id="2639" xmlns:xlink="http://www.w3.org/1999/xlink" width="200" height="200"><defs><style type="text/css"></style></defs><path d="M514.4832 226.5856c-173.61408 0-308.9408 108.66688-474.91584 284.84096 143.0016 150.64576 263.00416 285.056 474.91584 285.056s367.68256-170.15296 474.91584-281.86624C879.62112 383.744 723.85536 226.5856 514.4832 226.5856zM514.4832 764.82048c-188.12928 0-301.68576-116.68992-431.26272-253.35808 154.1632-160.75264 276.74112-253.22496 431.26272-253.22496 182.93248 0 325.90336 131.92192 432.2816 255.104C842.1376 622.42816 700.51328 764.82048 514.4832 764.82048zM514.4832 321.58208c-104.7552 0-189.96224 85.21216-189.96224 189.952 0 104.74496 85.20704 189.96736 189.96224 189.96736s189.96736-85.2224 189.96736-189.96736C704.45056 406.79424 619.2384 321.58208 514.4832 321.58208zM514.4832 669.81888c-87.29088 0-158.30016-70.99392-158.30016-158.28992 0-87.28064 71.00928-158.2848 158.30016-158.2848 87.27552 0 158.30016 71.00416 158.30016 158.2848C672.78336 598.82496 601.75872 669.81888 514.4832 669.81888zM514.4832 400.72704c-61.09184 0-110.80704 49.7152-110.80704 110.80704 0 61.10208 49.71008 110.8224 110.80704 110.8224 61.09184 0 110.80704-49.72032 110.80704-110.8224C625.29024 450.44224 575.57504 400.72704 514.4832 400.72704zM514.4832 590.68928c-43.64288 0-79.1552-35.52256-79.1552-79.1552s35.51744-79.15008 79.1552-79.15008c43.63776 0 79.16032 35.51232 79.16032 79.15008S558.12608 590.68928 514.4832 590.68928z" p-id="2640"></path></svg>